<svg width="200" height="200" viewBox="0 0 200 200" fill="none" xmlns="http://www.w3.org/2000/svg">
<circle cx="100" cy="100" r="100" fill="#1E293B"/>
<path d="M84.4135 125.2C81.3135 125.2 78.2135 124.6 75.7135 123.4C73.2135 122.2 71.1135 120.4 69.4135 118C67.7135 115.6 66.8135 112.6 66.7135 109H76.7135C76.8135 110.2 77.3135 111.2 78.2135 112C79.1135 112.8 80.3135 113.2 81.8135 113.2C83.3135 113.2 84.5135 112.8 85.4135 112C86.3135 111.2 86.7135 110.1 86.7135 108.7C86.7135 107.5 86.3135 106.5 85.5135 105.7C84.7135 104.9 83.5135 104.2 81.9135 103.6L78.6135 102.4C74.6135 101 71.5135 99.2 69.3135 96.6C67.1135 94 66.0135 90.6 66.0135 86.4C66.0135 83.2 66.9135 80.4 68.7135 78C70.5135 75.6 72.8135 73.8 75.6135 72.6C78.4135 71.4 81.4135 70.8 84.6135 70.8C90.3135 70.8 94.8135 72.4 98.1135 75.6C101.4135 78.8 102.7135 82.8 101.9135 87.6H91.9135C92.1135 84.8 91.2135 82.8 89.2135 81.6C88.0135 80.8 86.5135 80.4 84.7135 80.4C83.2135 80.4 82.0135 80.8 81.1135 81.6C80.2135 82.4 79.8135 83.3 79.8135 84.3C79.8135 85.3 80.1135 86.1 80.7135 86.7C81.3135 87.3 82.5135 87.9 84.3135 88.5L88.5135 90C92.6135 91.5 95.8135 93.3 98.1135 95.7C100.4135 98.1 101.5135 101.2 101.5135 105C101.5135 108.6 100.4135 111.6 98.2135 114.2C96.0135 116.8 93.1135 118.6 89.5135 119.6C88.8135 122.2 86.8135 124 84.4135 125.2Z" fill="#4285F4"/>
<path d="M125.91 113.8C125.91 118.4 124.31 122.2 121.11 125.2C117.91 128.2 114.01 129.8 109.41 129.8C104.81 129.8 101.01 128.2 98.0102 125.2C95.0102 122.2 93.5102 118.4 93.5102 113.8C93.5102 109.2 95.0102 105.4 98.0102 102.4C101.01 99.4 104.81 97.8 109.41 97.8C114.01 97.8 117.91 99.4 121.11 102.4C124.31 105.4 125.91 109.2 125.91 113.8ZM115.51 113.8C115.51 111.4 114.81 109.5 113.41 108.1C112.01 106.7 110.11 106 107.71 106C105.31 106 103.41 106.7 102.01 108.1C100.61 109.5 99.9102 111.4 99.9102 113.8C99.9102 116.2 100.61 118.1 102.01 119.5C103.41 120.9 105.31 121.6 107.71 121.6C110.11 121.6 112.01 120.9 113.41 119.5C114.81 118.1 115.51 116.2 115.51 113.8Z" fill="#F4B400"/>
<path d="M139.733 93.4C137.533 93.4 135.833 92.8 134.633 91.6C133.433 90.4 132.833 88.7 132.833 86.5C132.833 84.3 133.433 82.6 134.633 81.4C135.833 80.2 137.533 79.6 139.733 79.6C141.933 79.6 143.633 80.2 144.833 81.4C146.033 82.6 146.633 84.3 146.633 86.5C146.633 88.7 146.033 90.4 144.833 91.6C143.633 92.8 141.933 93.4 139.733 93.4Z" fill="#34A853"/>
<path d="M78.5135 142.2C76.3135 142.2 74.6135 141.6 73.4135 140.4C72.2135 139.2 71.6135 137.5 71.6135 135.3C71.6135 133.1 72.2135 131.4 73.4135 130.2C74.6135 129 76.3135 128.4 78.5135 128.4C80.7135 128.4 82.4135 129 83.6135 130.2C84.8135 131.4 85.4135 133.1 85.4135 135.3C85.4135 137.5 84.8135 139.2 83.6135 140.4C82.4135 141.6 80.7135 142.2 78.5135 142.2Z" fill="#DB4437"/>
</svg>
