<svg width="986" height="986" viewBox="0 0 986 986" fill="none" xmlns="http://www.w3.org/2000/svg">
<circle cx="493" cy="493" r="493" fill="#1E293B"/>
<path d="M428.647 701.789C455.805 701.789 476.126 681.468 476.126 654.31C476.126 627.152 455.805 606.831 428.647 606.831C401.488 606.831 381.168 627.152 381.168 654.31C381.168 681.468 401.488 701.789 428.647 701.789Z" fill="#DB4437"/>
<path d="M532.893 427.391C532.893 454.55 512.572 474.871 485.414 474.871C458.256 474.871 437.935 454.55 437.935 427.391C437.935 400.233 458.256 379.912 485.414 379.912C512.572 379.912 532.893 400.233 532.893 427.391Z" fill="#4CAF50"/>
<path d="M495.275 284.451C534.57 284.451 566.533 316.414 566.533 355.709C566.533 379.912 555.334 401.488 538.995 416.735C538.995 416.735 495.275 493.562 495.275 493.562C495.275 493.562 451.555 416.735 451.555 416.735C435.216 401.488 424.017 379.912 424.017 355.709C424.017 316.414 455.98 284.451 495.275 284.451ZM495.275 400.233C519.478 400.233 538.995 380.763 538.995 355.709C538.995 330.655 519.478 311.185 495.275 311.185C471.072 311.185 451.555 330.655 451.555 355.709C451.555 380.763 471.072 400.233 495.275 400.233Z" fill="#F4B400"/>
<path d="M381.168 654.31C381.168 596.115 428.647 548.636 486.842 548.636H489.57C547.765 548.636 595.244 501.157 595.244 442.962V438.83C595.244 436.764 593.551 435.071 591.485 435.071H485.414C431.954 435.071 387.201 479.825 387.201 533.285V595.244H386.842C344.839 595.244 311.185 628.898 311.185 670.901C311.185 686.148 316.414 700.534 324.737 711.233C326.101 713.067 328.431 713.56 330.563 712.44C332.695 711.32 333.454 708.924 332.334 706.792C325.299 694.027 320.937 682.339 320.937 670.901C320.937 634.405 350.346 605.006 386.842 605.006H591.485C593.551 605.006 595.244 603.313 595.244 601.247V499.231H605.006V601.247C605.006 608.824 598.937 614.768 591.485 614.768H386.842C344.839 614.768 311.185 648.422 311.185 690.425C311.185 705.244 316.086 719.165 323.866 730.221C325.164 732.121 327.427 732.68 329.493 731.667C331.559 730.655 332.451 728.324 331.285 726.258C324.086 714.437 320.937 702.516 320.937 690.425C320.937 653.929 350.346 624.53 386.842 624.53H532.893V634.292H386.842C355.805 634.292 331.185 658.91 331.185 690.425C331.185 693.153 331.423 695.881 331.792 698.542C332.227 701.442 334.693 703.485 337.592 703.485H532.893V693.723H338.463C336.086 693.723 334.327 691.89 334.258 689.559C334.223 688.581 334.223 687.602 334.223 686.624C334.223 660.602 354.544 640.281 381.168 640.281H532.893V548.636H523.131V634.292V640.281V693.723V703.485V713.247H428.647H381.168V701.789V654.31Z" fill="#4285F4"/>
</svg>
